Coordinates
version=1
nRows=19
nColumns=21
inDegrees=yes

Units are S.I. units (second, meters, Newtons, ...)
If the header above contains a line with 'inDegrees', this indicates whether rotational values are in degrees (yes) or radians (no).

endheader
time	sternoclavicular_r2	sternoclavicular_r3	unrotscap_r3	unrotscap_r2	acromioclavicular_r2	acromioclavicular_r3	acromioclavicular_r1	unrothum_r1	unrothum_r3	unrothum_r2	elv_angle	shoulder_elev	shoulder1_r2	shoulder_rot	elbow_flexion	pro_sup	deviation	flexion	wrist_hand_r1	wrist_hand_r3
      1.00502513	    -10.94853164	      4.63728126	     -4.63728126	     10.94853164	     -2.21685495	     17.91584189	      8.05304763	     -8.05304763	    -17.91584189	      2.21685495	    121.12472744	     45.24176488	   -121.12472744	     19.91860810	      1.08505206	      0.00000000	      0.00000000	     -0.00000000	     -0.00000000	      0.00000000
      1.02512563	    -10.98069521	      4.65090423	     -4.65090423	     10.98069521	     -2.22336742	     17.96847337	      8.07670512	     -8.07670512	    -17.96847337	      2.22336742	    121.17731055	     45.37467190	   -121.17731055	     19.91725687	      1.08110646	      0.00000000	      0.00000000	     -0.00000000	     -0.00000000	      0.00000000
      1.04522613	    -11.01380858	      4.66492949	     -4.66492949	     11.01380858	     -2.23007220	     18.02265907	      8.10106121	     -8.10106121	    -18.02265907	      2.23007220	    121.23194282	     45.51150368	   -121.23194282	     19.91580143	      1.07700417	      0.00000000	      0.00000000	     -0.00000000	     -0.00000000	      0.00000000
      1.06532663	    -11.04782319	      4.67933647	     -4.67933647	     11.04782319	     -2.23695947	     18.07831954	      8.12608021	     -8.12608021	    -18.07831954	      2.23695947	    121.28911817	     45.65205961	   -121.28911817	     19.91428221	      1.07253210	      0.00000000	      0.00000000	     -0.00000000	     -0.00000000	      0.00000000
      1.08542714	    -11.08349862	      4.69444690	     -4.69444690	     11.08349862	     -2.24418301	     18.13669771	      8.15232080	     -8.15232080	    -18.13669771	      2.24418301	    121.34174934	     45.79947840	   -121.34174934	     19.91290401	      1.06594398	      0.00000000	      0.00000000	     -0.00000000	     -0.00000000	      0.00000000
      1.10552764	    -11.11995566	      4.70988839	     -4.70988839	     11.11995566	     -2.25156482	     18.19635491	      8.17913630	     -8.17913630	    -18.19635491	      2.25156482	    121.39938981	     45.95012702	   -121.39938981	     19.91123999	      1.05900366	      0.00000000	      0.00000000	     -0.00000000	     -0.00000000	      0.00000000
      1.12562814	    -11.15698957	      4.72557420	     -4.72557420	     11.15698957	     -2.25906344	     18.25695606	      8.20637610	     -8.20637610	    -18.25695606	      2.25906344	    121.46052177	     46.10315936	   -121.46052177	     19.89763885	      1.06030056	      0.00000000	      0.00000000	     -0.00000000	     -0.00000000	      0.00000000
      1.14572864	    -11.19526000	      4.74178375	     -4.74178375	     11.19526000	     -2.26681242	     18.31958061	      8.23452541	     -8.23452541	    -18.31958061	      2.26681242	    121.52168027	     46.26130126	   -121.52168027	     19.89572546	      1.05417488	      0.00000000	      0.00000000	     -0.00000000	     -0.00000000	      0.00000000
      1.16582915	    -11.23462358	      4.75845631	     -4.75845631	     11.23462358	     -2.27478275	     18.38399398	      8.26347877	     -8.26347877	    -18.38399398	      2.27478275	    121.58458704	     46.42396035	   -121.58458704	     19.89327937	      1.04691386	      0.00000000	      0.00000000	     -0.00000000	     -0.00000000	      0.00000000
      1.18592965	    -11.27505029	      4.77557915	     -4.77557915	     11.27505029	     -2.28296833	     18.45014700	      8.29321410	     -8.29321410	    -18.45014700	      2.28296833	    121.64870164	     46.59101246	   -121.64870164	     19.89064351	      1.03936577	      0.00000000	      0.00000000	     -0.00000000	     -0.00000000	      0.00000000
      1.20603015	    -11.31652224	      4.79314471	     -4.79314471	     11.31652224	     -2.29136556	     18.51801043	      8.32371824	     -8.32371824	    -18.51801043	      2.29136556	    121.71404840	     46.76238377	   -121.71404840	     19.88794956	      1.03153800	      0.00000000	      0.00000000	     -0.00000000	     -0.00000000	      0.00000000
      1.22613065	    -11.35930928	      4.81126728	     -4.81126728	     11.35930928	     -2.30002906	     18.58802584	      8.35518969	     -8.35518969	    -18.58802584	      2.30002906	    121.77285523	     46.93918935	   -121.77285523	     19.89979388	      1.02200675	      0.00000000	      0.00000000	     -0.00000000	     -0.00000000	      0.00000000
      1.24623116	    -11.40287943	      4.82972154	     -4.82972154	     11.40287943	     -2.30885113	     18.65932270	      8.38723714	     -8.38723714	    -18.65932270	      2.30885113	    121.83955711	     47.11923089	   -121.83955711	     19.89754386	      1.01391858	      0.00000000	      0.00000000	     -0.00000000	     -0.00000000	      0.00000000
      1.26633166	    -11.44743745	      4.84859421	     -4.84859421	     11.44743745	     -2.31787322	     18.73223608	      8.42001120	     -8.42001120	    -18.73223608	      2.31787322	    121.90747012	     47.30335451	   -121.90747012	     19.89520114	      1.00609630	      0.00000000	      0.00000000	     -0.00000000	     -0.00000000	      0.00000000
      1.28643216	    -11.49302827	      4.86790433	     -4.86790433	     11.49302827	     -2.32710444	     18.80683949	      8.45354492	     -8.45354492	    -18.80683949	      2.32710444	    121.97657186	     47.49174590	   -121.97657186	     19.89273743	      0.99798248	      0.00000000	      0.00000000	     -0.00000000	     -0.00000000	      0.00000000
      1.30653266	    -11.53965147	      4.88765172	     -4.88765172	     11.53965147	     -2.33654469	     18.88313228	      8.48783800	     -8.48783800	    -18.88313228	      2.33654469	    122.04684258	     47.68440334	   -122.04684258	     19.89014262	      0.98956835	      0.00000000	      0.00000000	     -0.00000000	     -0.00000000	      0.00000000
      1.32663317	    -11.58730359	      4.90783491	     -4.90783491	     11.58730359	     -2.34619327	     18.96110875	      8.52288789	     -8.52288789	    -18.96110875	      2.34619327	    122.11826567	     47.88131249	   -122.11826567	     19.88740919	      0.98086043	      0.00000000	      0.00000000	     -0.00000000	     -0.00000000	      0.00000000
      1.34673367	    -11.63598038	      4.92845210	     -4.92845210	     11.63598038	     -2.35604933	     19.04076195	      8.55869145	     -8.55869145	    -19.04076195	      2.35604933	    122.19082363	     48.08245577	   -122.19082363	     19.88452979	      0.97186560	      0.00000000	      0.00000000	     -0.00000000	     -0.00000000	      0.00000000
      1.36683417	    -11.68395113	      4.94877025	     -4.94877025	     11.68395113	     -2.36576243	     19.11925982	      8.59397571	     -8.59397571	    -19.11925982	      2.36576243	    122.26648665	     48.28068158	   -122.26648665	     19.88348174	      0.97461868	      0.00000000	      0.00000000	     -0.00000000	     -0.00000000	      0.00000000
